PathFileType	4	(X/Y/Z)	/Users/mathieubourgeois/Desktop/Analyse/Traitement/Sujet_02/Data/Transformed_Sujet_02_velo_80.trc
DataRate	CameraRate	NumFrames	NumMarkers	Units	OrigDataRate	OrigDataStartFrame	OrigNumFrames
120.000000	120.000000	4	36	mm	120.000000	0	1886
Frame#	Time	RFHD			RANE			STRN			LANI			LKNE			T10			RHUM			RWRB			C7			LFWT			LTOE			RTOE			LWRA			LBWT			RBWT			RFWT			LKNI			RKNI			RKNE			LANE			RANI			LHEE			RHEE			LHUM			LRAD			RRAD			RWRA			LWRB			LFHD			LBHD			RBHD			RSHO			LSHO			CLAV			LCAR			RCAR			
		X1	Y1	Z1	X2	Y2	Z2	X3	Y3	Z3	X4	Y4	Z4	X5	Y5	Z5	X6	Y6	Z6	X7	Y7	Z7	X8	Y8	Z8	X9	Y9	Z9	X10	Y10	Z10	X11	Y11	Z11	X12	Y12	Z12	X13	Y13	Z13	X14	Y14	Z14	X15	Y15	Z15	X16	Y16	Z16	X17	Y17	Z17	X18	Y18	Z18	X19	Y19	Z19	X20	Y20	Z20	X21	Y21	Z21	X22	Y22	Z22	X23	Y23	Z23	X24	Y24	Z24	X25	Y25	Z25	X26	Y26	Z26	X27	Y27	Z27	X28	Y28	Z28	X29	Y29	Z29	X30	Y30	Z30	X31	Y31	Z31	X32	Y32	Z32	X33	Y33	Z33	X34	Y34	Z34	X35	Y35	Z35	X36	Y36	Z36	

1	0	44.17867279052732	1488.84716796875	148.6730194091796	-159.5961456298828	540.9537963867188	185.0731964111328	-217.8474578857422	1281.046752929688	32.20164108276357	-341.6219787597656	342.1258544921875	-78.38788604736334	-190.4284515380859	741.291015625	-144.3325805664063	-375.3460388183594	1524.255615234375	36.71064376831041	-53.50661087036136	1187.881591796875	246.8544464111327	176.3282775878906	1025.873901367188	167.6422576904297	-130.8591461181641	1587.114501953125	40.59263992309559	-397.7301940917969	1213.352783203125	-104.1248779296876	-182.3437957763672	211.9083862304688	-149.1966705322266	55.05821990966795	503.9522399902344	158.5305480957031	219.4548645019532	1050.6083984375	-161.032470703125	-591.6306762695312	1203.97607421875	-49.44406509399428	-597.8336181640625	1209.64599609375	72.44013214111314	-423.776123046875	1236.575073242188	160.6954498291014	-157.2314605712891	702.1951293945312	-43.59197235107428	-5.764307498931898	960.1511840820312	108.5126495361328	-68.37518310546878	978.1373901367188	215.7081451416015	-375.8064575195312	340.4913940429688	-165.8386688232423	-133.6140899658203	562.2750854492188	97.32053375244136	-446.0523376464844	331.1464233398438	-120.9958190917969	-230.790512084961	501.21630859375	132.5562133789062	-20.86566734313963	1217.542236328125	-173.0023803710938	39.31481552124026	1258.079833984375	-189.2803497314454	6.101119995117154	1237.367431640625	276.6370849609374	207.9224548339843	1055.488647460938	221.6353302001953	182.6602325439453	1025.443237304688	-102.2632598876953	57.83986282348633	1446.873779296875	-3.166408538818441	-23.60371589660644	1573.996337890625	-31.67160606384287	-20.40436935424806	1601.750610351562	124.7116165161132	-125.7308425903321	1521.70166015625	184.4893341064452	-107.2531280517578	1521.734619140625	-89.84298706054699	-115.90576171875	1428.038940429688	38.94099426269521	295.3698120117188	1036.881713867188	-75.3478240966797	294.2051391601562	1018.469299316406	146.6294250488281	
2	0.008333333333333333	44.08962631225584	1488.745483398438	148.6327972412109	-153.1563415527344	529.8506469726562	184.9451904296874	-217.9513854980469	1281.141967773438	32.4155158996581	-346.706298828125	351.9655151367188	-78.17765045166023	-185.5591888427734	745.9780883789062	-144.1422424316407	-375.52392578125	1524.336791992188	36.96737670898424	-53.28206634521487	1188.1298828125	246.8015899658202	176.3914489746093	1025.948974609375	167.5839691162109	-131.1360473632812	1587.26806640625	40.7743568420409	-397.9800109863281	1213.616821289062	-103.7582168579103	-191.4624938964843	218.7501373291016	-149.1949462890625	62.41405105590818	497.1510620117188	157.6706390380859	219.4858703613282	1050.644775390625	-161.086410522461	-591.7279663085938	1203.923950195312	-49.47126007080092	-597.7996826171875	1209.493774414062	72.42343902587876	-423.7840270996094	1235.81884765625	160.7659759521483	-152.6070709228516	706.7200927734375	-43.21577453613288	-7.874651432037367	952.0709228515625	107.7425994873046	-70.22986602783206	969.8405151367188	215.0911712646484	-381.1702575683594	351.0823669433594	-165.609832763672	-128.3906555175781	550.9115600585938	96.89688110351558	-451.5947875976562	343.321044921875	-120.7602157592774	-223.641098022461	488.2362976074219	132.4000396728515	-20.75725746154783	1217.653076171875	-172.6319732666016	39.35750579833987	1258.18115234375	-189.0760955810548	6.354432106018033	1237.6298828125	276.5069580078124	207.6788024902343	1056.356201171875	222.3443603515625	182.6850128173828	1025.458740234375	-102.2899169921875	57.54273223876953	1446.8759765625	-3.28729009628304	-23.84820365905761	1574.044311523438	-31.52369117736826	-20.48018646240236	1601.726196289062	124.8260574340819	-125.7704162597657	1521.9482421875	184.6597442626952	-107.3175277709961	1521.828369140625	-89.56493377685558	-116.076301574707	1428.201049804688	39.12212371826162	295.4160766601562	1036.845825195312	-75.40210723876955	294.2424926757812	1018.427124023438	146.4980316162109	
3	0.01666666666666667	44.00515365600584	1488.656372070312	148.5658569335937	-147.42041015625	517.9827880859375	184.6709594726562	-218.0100402832031	1281.237548828125	32.67832946777333	-351.1710815429688	362.086669921875	-77.89983367919929	-180.3114929199218	751.1943359375	-143.9442749023438	-375.6656188964844	1524.399291992188	37.15346145629869	-53.06108093261722	1188.440795898438	246.630645751953	176.4553527832031	1026.040405273438	167.5537872314453	-131.4054870605469	1587.47900390625	40.87951278686512	-398.2204284667969	1213.873779296875	-103.2998657226564	-199.0672760009765	225.5912170410156	-149.21728515625	68.95645904541014	489.2362060546875	157.4239959716797	219.5162811279297	1050.683349609375	-161.1149444580078	-591.7989501953125	1203.874755859375	-49.45557785034194	-597.7212524414062	1209.352294921875	72.44604492187486	-423.6388549804688	1235.671508789062	161.7331390380858	-147.6923217773438	711.6010131835938	-42.81130218505866	-9.726842880249036	942.1423950195312	108.0346527099609	-72.47613525390628	960.8508911132812	214.9485473632812	-385.7038269042969	362.2109375	-165.3533325195313	-125.1283645629883	539.5357666015625	96.41575622558589	-456.2471618652344	356.1375732421875	-120.4526672363282	-217.0567016601563	474.8005065917969	132.1575622558593	-20.61512184143064	1217.827758789062	-172.4090728759766	39.42402648925783	1258.323120117188	-188.910125732422	6.598548889160122	1237.935302734375	276.3134765624999	207.7330474853515	1056.47802734375	222.3782653808593	182.7106170654297	1025.50732421875	-102.318099975586	57.2276611328125	1446.860473632812	-3.420865297317586	-24.08128356933593	1574.09228515625	-31.43561744689951	-20.51768302917482	1601.724609375	124.9132385253905	-125.8373565673828	1522.193603515625	184.7503204345702	-107.3850936889648	1521.93115234375	-89.34564971923839	-116.2114639282227	1428.398071289062	39.29702758789053	295.4333190917969	1036.825439453125	-75.43172454833986	294.2719421386719	1018.402038574219	146.4420623779297	
4	0.025	43.27299880981443	1488.06494140625	148.6549987792968	-142.6806945800782	505.8117370605469	184.7582397460937	-218.0235748291016	1281.345336914062	32.91392135620107	-354.4928283691406	373.2854309082031	-77.75956726074226	-174.8151550292968	757.5497436523438	-143.6412048339845	-375.8000183105469	1524.437622070312	37.31052398681627	-52.85187530517581	1188.809204101562	246.3364105224609	176.7209014892578	1026.462036132812	167.581787109375	-131.7006988525391	1587.745239257812	40.92894363403309	-398.4602661132812	1214.0673828125	-102.7027816772462	-205.9740905761718	233.0546722412109	-149.2570800781251	74.8472442626953	480.3981018066406	157.1936492919922	221.077392578125	1050.992797851562	-161.166748046875	-591.8889770507812	1203.595703125	-49.28861618042006	-597.5808715820312	1209.241088867188	72.53662109374986	-423.4712829589844	1235.18017578125	162.4955596923827	-140.4577789306641	717.931884765625	-42.10942459106451	-11.97415733337404	931.369140625	108.908348083496	-74.55228424072268	950.8412475585938	213.998062133789	-389.5879516601562	374.6377868652344	-165.0357971191407	-119.9104309082031	527.424560546875	95.63677978515621	-459.9581909179688	369.5519714355469	-120.1411361694337	-211.0286712646485	460.9298095703125	132.0111389160156	-20.45417785644529	1218.0361328125	-172.2259826660157	39.59360504150393	1258.517700195312	-188.7351684570313	6.813531875610318	1238.273315429688	276.0509033203124	207.6374359130859	1056.514892578125	221.9780883789062	182.9287719726562	1025.243530273438	-102.1133270263672	56.92525100708008	1446.882568359375	-3.599063873291097	-23.81326103210449	1574.193969726562	-31.1008243560792	-20.97179985046388	1601.489624023438	125.1915588378905	-125.9077377319336	1522.484985351562	184.7784118652343	-107.393310546875	1522.22509765625	-89.2767791748048	-116.3286361694336	1428.640991210938	39.42539215087881	294.7595520019531	1037.553833007812	-74.89896392822267	294.2516784667969	1018.521484375	146.4052276611328	
